<svg xmlns="http://www.w3.org/2000/svg" version="1.1" xmlns:xlink="http://www.w3.org/1999/xlink" width="1000" height="1000"><style>
    #light-icon {
      display: inline;
    }
    #dark-icon {
      display: none;
    }

    @media (prefers-color-scheme: dark) {
      #light-icon {
        display: none;
      }
      #dark-icon {
        display: inline;
      }
    }
  </style><g id="light-icon"><svg xmlns="http://www.w3.org/2000/svg" version="1.1" xmlns:xlink="http://www.w3.org/1999/xlink" width="1000" height="1000"><g><g transform="matrix(0.705556966669489,0,0,0.705556966669489,-5.684341886080802e-14,-5.684341886080802e-14)"><svg xmlns="http://www.w3.org/2000/svg" viewBox="0 0 1417.32 1417.32" width="1417.32" height="1417.32"><path fill="#222" d="M708.66,26.56C304.15,26.56.47,372.99,0,735.22c-.35,271.96,170.25,527.97,435.73,654.42.84.32,2.01.59,3.08.11.14-.12.27-.22.39-.33,0,0,.11-.1.29-.24.21-.18.42-.36.63-.53,46.81-39.78,156.29-243.57,173.4-288.98,20.43-54.18,38.04-106.42,53.26-156.24-27.06-3.35-66.83-4.98-113.08,5.12-65.41,14.28-111.53,44.97-136.14,64.21-4.28,4.13-10.7,9.66-19.31,14.87-6.25,3.78-45.76,26.79-89.97,12.34-33.33-10.89-49.96-36.74-60.94-53.79-16.41-25.5-21.41-49.55-22.85-58.24-1.51-9.11-3.2-19.27-1.86-31.12,3.5-31.01,24.65-46.69,107.47-130.45l.02-.02c17.55-18.21,39.96-46.48,58.74-89.35,0,0,0,0,0,0,4.86-11.1,10.61-22.74,17.44-34.7,20.54-35.96,44.36-63.46,65.48-83.74-86.94-95.89-173.89-191.79-260.83-287.68,116.65,57.71,233.3,115.43,349.96,173.14,1.27-.98,2.56-1.95,3.85-2.92,14.73-11,29.68-20.22,44.51-27.98-.51-7.58-1.27-15.52-2.38-23.79-2.96-22.09-7.65-41.52-12.67-57.89,16.6,5.28,39.74,15.21,61.89,34.59,7.57,6.62,13.9,13.36,19.15,19.74,3.85-11.69,7.53-25.36,10.2-40.79,2.14-12.32,3.28-23.75,3.82-34.02,15.65,5.85,27.02,13.22,34.25,18.64,22.04,16.51,34.31,36.31,40.93,49.05,32.31,1.8,60.97,8.52,87.2,14.58,66.32,15.32,117.06,40.62,149.59,59.78-29.3,6.7-58.6,13.4-87.9,20.11,31.48,3.97,99.25,16.88,165.35,67.91,52.3,40.37,80.65,86.91,94.57,114.17-25.33,0-50.65-.02-75.98-.03,22.99,17.52,67.92,56.7,97.11,123.01,24.34,55.29,26.96,104.96,26.36,132.89-23.05-8.4-46.1-16.8-69.16-25.2-11.02,70.55-28.9,152.56-58.29,241.71-34.52,104.75-76.14,192.73-115.16,262.97.05.07.1.14.15.21,257.64-106.09,439.01-359.63,439.01-655.54,0-391.38-317.28-708.66-708.66-708.66Z"></path></svg></g></g></svg></g><g id="dark-icon"><svg xmlns="http://www.w3.org/2000/svg" version="1.1" xmlns:xlink="http://www.w3.org/1999/xlink" width="1000" height="1000"><g><g transform="matrix(0.705556966669489,0,0,0.705556966669489,-5.684341886080802e-14,-5.684341886080802e-14)"><svg xmlns="http://www.w3.org/2000/svg" id="_Слой_1" data-name="Слой 1" viewBox="0 0 1417.32 1417.32" width="1417.32" height="1417.32"><defs>
    <style>
      .cls-1 {
        fill: #fff;
      }
    </style>
  </defs><path class="cls-1" d="M708.66,26.56C304.15,26.56.47,372.99,0,735.22c-.35,271.96,170.25,527.97,435.73,654.42.84.32,2.01.59,3.08.11.14-.12.27-.22.39-.33,0,0,.11-.1.29-.24.21-.18.42-.36.63-.53,46.81-39.78,156.29-243.57,173.4-288.98,20.43-54.18,38.04-106.42,53.26-156.24-27.06-3.35-66.83-4.98-113.08,5.12-65.41,14.28-111.53,44.97-136.14,64.21-4.28,4.13-10.7,9.66-19.31,14.87-6.25,3.78-45.76,26.79-89.97,12.34-33.33-10.89-49.96-36.74-60.94-53.79-16.41-25.5-21.41-49.55-22.85-58.24-1.51-9.11-3.2-19.27-1.86-31.12,3.5-31.01,24.65-46.69,107.47-130.45l.02-.02c17.55-18.21,39.96-46.48,58.74-89.35,0,0,0,0,0,0,4.86-11.1,10.61-22.74,17.44-34.7,20.54-35.96,44.36-63.46,65.48-83.74-86.94-95.89-173.89-191.79-260.83-287.68,116.65,57.71,233.3,115.43,349.96,173.14,1.27-.98,2.56-1.95,3.85-2.92,14.73-11,29.68-20.22,44.51-27.98-.51-7.58-1.27-15.52-2.38-23.79-2.96-22.09-7.65-41.52-12.67-57.89,16.6,5.28,39.74,15.21,61.89,34.59,7.57,6.62,13.9,13.36,19.15,19.74,3.85-11.69,7.53-25.36,10.2-40.79,2.14-12.32,3.28-23.75,3.82-34.02,15.65,5.85,27.02,13.22,34.25,18.64,22.04,16.51,34.31,36.31,40.93,49.05,32.31,1.8,60.97,8.52,87.2,14.58,66.32,15.32,117.06,40.62,149.59,59.78-29.3,6.7-58.6,13.4-87.9,20.11,31.48,3.97,99.25,16.88,165.35,67.91,52.3,40.37,80.65,86.91,94.57,114.17-25.33,0-50.65-.02-75.98-.03,22.99,17.52,67.92,56.7,97.11,123.01,24.34,55.29,26.96,104.96,26.36,132.89-23.05-8.4-46.1-16.8-69.16-25.2-11.02,70.55-28.9,152.56-58.29,241.71-34.52,104.75-76.14,192.73-115.16,262.97.05.07.1.14.15.21,257.64-106.09,439.01-359.63,439.01-655.54,0-391.38-317.28-708.66-708.66-708.66Z"></path></svg></g></g></svg></g></svg>